HIERARCHY
ROOT Hips
{
	OFFSET 0.000000 0.000000 0.000000
	CHANNELS 6 Xposition Yposition Zposition Zrotation Yrotation Xrotation 
	JOINT LowerBack
	{
		OFFSET 0.000000 0.000000 0.000000
		CHANNELS 3 Zrotation Yrotation Xrotation
		JOINT Spine
		{
			OFFSET 0.028270 2.035590 -0.193380
			CHANNELS 3 Zrotation Yrotation Xrotation
			JOINT Spine1
			{
				OFFSET 0.056720 2.048850 -0.042750
				CHANNELS 3 Zrotation Yrotation Xrotation
				JOINT Neck
				{
					OFFSET 0.000000 0.000000 0.000000
					CHANNELS 3 Zrotation Yrotation Xrotation
					JOINT Neck1
					{
						OFFSET -0.054170 1.746240 0.172020
						CHANNELS 3 Zrotation Yrotation Xrotation
						JOINT Head
						{
							OFFSET 0.104070 1.761360 -0.123970
							CHANNELS 3 Zrotation Yrotation Xrotation
							End Site
							{
								OFFSET 0.000000 0.000000 0.000000
							}
						}
					}
				}
				JOINT LeftShoulder
				{
					OFFSET 0.000000 0.000000 0.000000
					CHANNELS 3 Zrotation Yrotation Xrotation
					JOINT LeftArm
					{
						OFFSET 3.362410 1.200890 -0.311210
						CHANNELS 3 Zrotation Yrotation Xrotation
						JOINT LeftForeArm
						{
							OFFSET 4.983000 -0.000000 -0.000000
							CHANNELS 3 Zrotation Yrotation Xrotation
							JOINT LeftHand
							{
								OFFSET 3.483560 -0.000000 -0.000000
								CHANNELS 3 Zrotation Yrotation Xrotation
								JOINT LeftFingerBase
								{
									OFFSET 0.000000 0.000000 0.000000
									CHANNELS 3 Zrotation Yrotation Xrotation
									JOINT LeftHandIndex1
									{
										OFFSET 0.715260 -0.000000 -0.000000
										CHANNELS 3 Zrotation Yrotation Xrotation
										End Site
										{
											OFFSET 0.000000 0.000000 0.000000
										}
									}
								}
								JOINT LThumb
								{
									OFFSET 0.000000 0.000000 0.000000
									CHANNELS 3 Zrotation Yrotation Xrotation
									End Site
									{
										OFFSET 0.000000 0.000000 0.000000
									}
								}
							}
						}
					}
				}
				JOINT RightShoulder
				{
					OFFSET 0.000000 0.000000 0.000000
					CHANNELS 3 Zrotation Yrotation Xrotation
					JOINT RightArm
					{
						OFFSET -3.136600 1.374050 -0.404650
						CHANNELS 3 Zrotation Yrotation Xrotation
						JOINT RightForeArm
						{
							OFFSET -5.241900 -0.000000 -0.000000
							CHANNELS 3 Zrotation Yrotation Xrotation
							JOINT RightHand
							{
								OFFSET -3.444170 -0.000000 -0.000000
								CHANNELS 3 Zrotation Yrotation Xrotation
								JOINT RightFingerBase
								{
									OFFSET 0.000000 0.000000 0.000000
									CHANNELS 3 Zrotation Yrotation Xrotation
									JOINT RightHandIndex1
									{
										OFFSET -0.622530 -0.000000 -0.000000
										CHANNELS 3 Zrotation Yrotation Xrotation
										End Site
										{
											OFFSET 0.000000 0.000000 0.000000
										}
									}
								}
								JOINT RThumb
								{
									OFFSET 0.000000 0.000000 0.000000
									CHANNELS 3 Zrotation Yrotation Xrotation
									End Site
									{
										OFFSET 0.000000 0.000000 0.000000
									}
								}
							}
						}
					}
				}
			}
		}
	}
}
}
MOTION
Frames: 17
Frame Time: 0.008333
-1.945493 16.949033 -0.563458 8.250976 53.802159 18.950256 -0.403500 -7.027594 -7.451572 0.122023 -7.232324 -3.728890 -4.783674 -7.369132 2.337189 10.744878 -21.442135 -10.790395 -2.731246 -0.174746 -0.726624 0.000000 0.000000 0.000000 -0.001378 5.150884 0.198534 -64.630663 -4.525645 -6.974231 -1.725155 -60.369182 -0.054801 14.253632 -0.605365 -0.105446 -0.152273 0.242222 -0.000000 0.000000 0.000000 0.000000 0.000000 0.000000 0.000000 16.021343 -21.076692 0.209998 56.025481 -8.052880 -25.686874 2.211819 47.591801 0.007654 -4.090825 6.185779 -0.233714 0.150418 -0.139838 -0.000000 0.000000 0.000000 0.000000 0.000000 0.000000 0.000000 
-1.838262 16.953021 -0.489249 7.560858 52.954133 18.327668 -0.135396 -6.945467 -7.455322 0.168971 -7.180034 -3.732663 -4.795930 -7.317857 2.335371 10.788829 -21.366116 -10.779078 -2.744011 -0.176294 -0.723783 0.000000 0.000000 0.000000 -0.074947 5.225947 0.194180 -65.369142 -4.316049 -7.116091 -1.753012 -59.762746 -0.053463 14.197618 -0.589116 -0.102393 -0.149806 0.237057 -0.000000 0.000000 0.000000 0.000000 0.000000 0.000000 0.000000 16.095037 -20.964910 0.197649 55.598530 -7.356382 -25.536365 2.182508 47.974776 0.007196 -4.108046 6.115519 -0.232113 0.149867 -0.142291 -0.000000 0.000000 0.000000 0.000000 0.000000 0.000000 0.000000 
-1.735231 16.956266 -0.414054 6.952660 52.152915 17.789485 0.082044 -6.877652 -7.444326 0.203401 -7.137208 -3.731703 -4.819075 -7.275551 2.333433 10.864305 -21.303347 -10.776895 -2.759381 -0.177886 -0.723530 0.000000 0.000000 0.000000 -0.107834 5.267563 0.193964 -66.067726 -4.076034 -7.239973 -1.779468 -59.134131 -0.052135 14.142043 -0.560051 -0.097644 -0.147106 0.231705 -0.000000 0.000000 0.000000 0.000000 0.000000 0.000000 0.000000 16.214032 -20.873017 0.183327 55.232464 -6.612773 -25.348009 2.151704 48.387943 0.006760 -4.106346 6.043710 -0.229413 0.149038 -0.144591 -0.000000 0.000000 0.000000 0.000000 0.000000 0.000000 0.000000 
-1.636018 16.958753 -0.338160 6.413284 51.402723 17.329156 0.257738 -6.822800 -7.425005 0.227056 -7.103402 -3.727477 -4.853565 -7.241761 2.331620 10.968416 -21.246226 -10.783990 -2.778428 -0.179625 -0.725887 0.000000 0.000000 0.000000 -0.109090 5.288396 0.198628 -66.721125 -3.821762 -7.332200 -1.805357 -58.482519 -0.050816 14.089319 -0.525700 -0.092398 -0.144257 0.226238 -0.000000 0.000000 0.000000 0.000000 0.000000 0.000000 0.000000 16.378979 -20.791289 0.166261 54.919672 -5.839656 -25.120487 2.119276 48.838671 0.006359 -4.093562 5.976438 -0.226212 0.147997 -0.146750 -0.000000 0.000000 0.000000 0.000000 0.000000 0.000000 0.000000 
-1.540382 16.960574 -0.261491 5.948986 50.705556 16.957792 0.388438 -6.780859 -7.408251 0.239651 -7.078521 -3.722298 -4.898250 -7.216521 2.329320 11.096877 -21.198078 -10.798543 -2.801171 -0.181562 -0.730234 0.000000 0.000000 0.000000 -0.088035 5.278971 0.207534 -67.321348 -3.537856 -7.394678 -1.830052 -57.826793 -0.049493 14.040564 -0.490191 -0.086954 -0.141238 0.220629 -0.000000 0.000000 0.000000 0.000000 0.000000 0.000000 0.000000 16.584710 -20.723172 0.147082 54.659399 -5.039459 -24.856910 2.086027 49.317723 0.006002 -4.075200 5.921456 -0.223210 0.146837 -0.148819 -0.000000 0.000000 0.000000 0.000000 0.000000 0.000000 0.000000 
-1.447952 16.961982 -0.184162 5.548613 50.058807 16.667613 0.481069 -6.749004 -7.399526 0.242576 -7.060595 -3.717376 -4.952804 -7.197899 2.326983 11.245869 -21.149467 -10.818790 -2.828282 -0.183789 -0.736103 0.000000 0.000000 0.000000 -0.052527 5.254065 0.220670 -67.869539 -3.238866 -7.420725 -1.854338 -57.162097 -0.048162 13.998691 -0.462280 -0.082610 -0.138132 0.214925 -0.000000 0.000000 0.000000 0.000000 0.000000 0.000000 0.000000 16.828880 -20.656788 0.124991 54.447149 -4.229936 -24.560637 2.051891 49.825161 0.005685 -4.060392 5.883242 -0.221006 0.145627 -0.150823 -0.000000 0.000000 0.000000 0.000000 0.000000 0.000000 0.000000 
-1.358407 16.963214 -0.106148 5.208538 49.455963 16.456441 0.537007 -6.724362 -7.404430 0.236280 -7.047103 -3.713944 -5.015991 -7.183478 2.324740 11.410339 -21.096552 -10.841721 -2.859558 -0.186349 -0.742647 0.000000 0.000000 0.000000 -0.009534 5.218112 0.237294 -68.366498 -2.923338 -7.414413 -1.878179 -56.493492 -0.046808 13.964661 -0.446972 -0.079765 -0.134979 0.209121 -0.000000 0.000000 0.000000 0.000000 0.000000 0.000000 0.000000 17.104086 -20.586706 0.100049 54.284694 -3.419682 -24.237460 2.017265 50.351579 0.005404 -4.055771 5.866641 -0.220201 0.144433 -0.152817 -0.000000 0.000000 0.000000 0.000000 0.000000 0.000000 0.000000 
-1.271529 16.964598 -0.027334 4.922432 48.885966 16.317668 0.558799 -6.703131 -7.426440 0.221359 -7.034660 -3.712756 -5.086582 -7.169966 2.323149 11.585466 -21.032172 -10.864277 -2.894697 -0.189265 -0.749054 0.000000 0.000000 0.000000 0.036134 5.182571 0.256803 -68.817055 -2.597815 -7.380203 -1.901905 -55.817091 -0.045422 13.940209 -0.449368 -0.079219 -0.131840 0.203218 -0.000000 0.000000 0.000000 0.000000 0.000000 0.000000 0.000000 17.402780 -20.503355 0.072005 54.174662 -2.620326 -23.894067 1.982276 50.889154 0.005145 -4.066894 5.872413 -0.220993 0.143296 -0.154843 -0.000000 0.000000 0.000000 0.000000 0.000000 0.000000 0.000000 
-1.187250 16.966427 0.052437 4.688724 48.334603 16.245846 0.544541 -6.681569 -7.466168 0.197562 -7.019399 -3.714034 -5.162872 -7.153611 2.322373 11.766301 -20.955270 -10.883137 -2.932656 -0.192501 -0.754428 0.000000 0.000000 0.000000 0.081152 5.149593 0.278124 -69.225507 -2.256282 -7.331889 -1.925102 -55.137560 -0.043998 13.925707 -0.469909 -0.080972 -0.128744 0.197177 -0.000000 0.000000 0.000000 0.000000 0.000000 0.000000 0.000000 17.714518 -20.404151 0.041479 54.124701 -1.832845 -23.536669 1.947464 51.422860 0.004896 -4.096532 5.900204 -0.223583 0.142247 -0.156955 -0.000000 0.000000 0.000000 0.000000 0.000000 0.000000 0.000000 
-1.105456 16.968935 0.133248 4.498746 47.785324 16.230630 0.496657 -6.655082 -7.524457 0.165366 -6.997036 -3.717922 -5.243674 -7.130213 2.323553 11.948527 -20.856406 -10.895706 -2.972714 -0.196033 -0.758132 0.000000 0.000000 0.000000 0.125630 5.137679 0.300939 -69.601078 -1.911904 -7.277127 -1.948435 -54.443230 -0.042531 13.920971 -0.509585 -0.085121 -0.125776 0.191004 -0.000000 0.000000 0.000000 0.000000 0.000000 0.000000 0.000000 18.030809 -20.276109 0.008000 54.140631 -1.070725 -23.170657 1.912637 51.948085 0.004636 -4.145800 5.945784 -0.227971 0.141268 -0.159182 -0.000000 0.000000 0.000000 0.000000 0.000000 0.000000 0.000000 
-1.026310 16.972227 0.215261 4.353834 47.221267 16.264555 0.408340 -6.620162 -7.595789 0.123144 -6.963269 -3.723143 -5.328316 -7.095548 2.327858 12.130574 -20.721474 -10.899552 -3.014403 -0.199833 -0.759662 0.000000 0.000000 0.000000 0.178080 5.169733 0.325364 -69.956103 -1.587092 -7.223318 -1.972967 -53.712841 -0.041023 13.925093 -0.571352 -0.091967 -0.123043 0.184748 -0.000000 0.000000 0.000000 0.000000 0.000000 0.000000 0.000000 18.346989 -20.101371 -0.029315 54.229300 -0.353080 -22.802741 1.877172 52.463875 0.004348 -4.212979 6.004855 -0.233859 0.140276 -0.161521 -0.000000 0.000000 0.000000 0.000000 0.000000 0.000000 0.000000 
-0.949573 16.976357 0.298654 4.237864 46.628495 16.342914 0.293929 -6.573170 -7.692678 0.074768 -6.916167 -3.732848 -5.413439 -7.047861 2.334313 12.303141 -20.582662 -10.894630 -3.054668 -0.203689 -0.758744 0.000000 0.000000 0.000000 0.218876 5.207769 0.349027 -70.280615 -1.219119 -7.206768 -1.995510 -53.001841 -0.039459 13.937436 -0.632244 -0.098812 -0.120390 0.178167 -0.000000 0.000000 0.000000 0.000000 0.000000 0.000000 0.000000 18.642712 -19.914494 -0.066255 54.400707 0.371950 -22.425570 1.843952 52.934448 0.004025 -4.292147 6.066502 -0.240543 0.139395 -0.164087 -0.000000 0.000000 0.000000 0.000000 0.000000 0.000000 0.000000 
-0.875660 16.981234 0.383428 4.158986 45.993330 16.458265 0.138146 -6.512360 -7.801812 0.016260 -6.852162 -3.743766 -5.500555 -6.983586 2.345334 12.470881 -20.401898 -10.879850 -3.094869 -0.207678 -0.755461 0.000000 0.000000 0.000000 0.273515 5.308447 0.374159 -70.597612 -0.878465 -7.216235 -2.019776 -52.247493 -0.037857 13.955467 -0.704538 -0.107052 -0.118050 0.171485 -0.000000 0.000000 0.000000 0.000000 0.000000 0.000000 0.000000 18.926719 -19.670369 -0.106682 54.654651 1.047501 -22.048500 1.810307 53.386245 0.003651 -4.378532 6.127521 -0.247626 0.138393 -0.166782 -0.000000 0.000000 0.000000 0.000000 0.000000 0.000000 0.000000 
-0.804590 16.986724 0.469639 4.111036 45.307765 16.607871 -0.053612 -6.436467 -7.926550 -0.050837 -6.770535 -3.756871 -5.588102 -6.902099 2.360634 12.630174 -20.195645 -10.856833 -3.133467 -0.211660 -0.750184 0.000000 0.000000 0.000000 0.335736 5.455081 0.399992 -70.902662 -0.538010 -7.272471 -2.044392 -51.476654 -0.036221 13.977757 -0.773822 -0.114989 -0.115952 0.164613 -0.000000 0.000000 0.000000 0.000000 0.000000 0.000000 0.000000 19.190873 -19.386500 -0.148377 54.994192 1.702239 -21.665346 1.777795 53.801502 0.003230 -4.464517 6.181366 -0.254607 0.137287 -0.169648 -0.000000 0.000000 0.000000 0.000000 0.000000 0.000000 0.000000 
-0.736378 16.992569 0.557158 4.089633 44.567956 16.788474 -0.278715 -6.345244 -8.067387 -0.125907 -6.671274 -3.772365 -5.675906 -6.803440 2.380443 12.780624 -19.964175 -10.827633 -3.170351 -0.215597 -0.743515 0.000000 0.000000 0.000000 0.407063 5.652026 0.427000 -71.197920 -0.200143 -7.381636 -2.069587 -50.691468 -0.034560 14.003505 -0.834067 -0.121823 -0.114101 0.157578 -0.000000 0.000000 0.000000 0.000000 0.000000 0.000000 0.000000 19.435456 -19.062083 -0.191075 55.415472 2.338621 -21.272009 1.746622 54.180368 0.002767 -4.543551 6.223352 -0.260786 0.136028 -0.172671 -0.000000 0.000000 0.000000 0.000000 0.000000 0.000000 0.000000 
-0.670938 16.998482 0.645886 4.091702 43.775871 17.001642 -0.533686 -6.239513 -8.227819 -0.208156 -6.555626 -3.791089 -5.764179 -6.688917 2.404697 12.922574 -19.704022 -10.794244 -3.206046 -0.219510 -0.736021 0.000000 0.000000 0.000000 0.489911 5.904284 0.456061 -71.484322 0.129346 -7.543022 -2.095849 -49.891530 -0.032896 14.032215 -0.881522 -0.127053 -0.112494 0.150430 -0.000000 0.000000 0.000000 0.000000 0.000000 0.000000 0.000000 19.663491 -18.692557 -0.234890 55.909079 2.951402 -20.864664 1.716607 54.530015 0.002267 -4.610187 6.249909 -0.265663 0.134568 -0.175819 -0.000000 0.000000 0.000000 0.000000 0.000000 0.000000 0.000000 
-0.608206 17.004137 0.735582 4.113176 42.935600 17.244836 -0.812340 -6.120554 -8.407137 -0.296135 -6.425335 -3.813179 -5.852721 -6.560273 2.432771 13.055608 -19.424098 -10.760156 -3.240538 -0.223353 -0.728646 0.000000 0.000000 0.000000 0.579877 6.203315 0.487418 -71.756585 0.458802 -7.757530 -2.122628 -49.092233 -0.031236 14.064036 -0.910067 -0.129981 -0.111083 0.143187 -0.000000 0.000000 0.000000 0.000000 0.000000 0.000000 0.000000 19.876611 -18.288124 -0.278678 56.466059 3.557081 -20.435285 1.688602 54.844765 0.001746 -4.661208 6.262931 -0.269037 0.132919 -0.179098 -0.000000 0.000000 0.000000 0.000000 0.000000 0.000000 0.000000 
